# xmcd
#
# Track frame offsets: 
#        150
#        19520
#        32069
#        54235
#        69857
#        87129
#        101477
#        121755
#        141341
#        154006
#        175518
#        191354
#        210926
#        228159
#        245357
#        265175
#
# Disc length: 3759 seconds
#
# Revision: 0
# Processed by: cddbd v1.5.2PL0 Copyright (c) Steve Scherf et al.
# Submitted via: ExactAudioCopy v1.0b3
#
DISCID=b90ead10
DTITLE=合辑 - 草原歌典-第十辑
DYEAR=2006
DGENRE=
TTITLE0=我和草原有个约定
TTITLE1=八月的草原等你来
TTITLE2=鹿铃森林
TTITLE3=草原上建起钢铁城
TTITLE4=锡林河
TTITLE5=科尔沁迎宾曲
TTITLE6=鄂尔多斯
TTITLE7=草原女孩
TTITLE8=冀州城
TTITLE9=草原
TTITLE10=马背骑手
TTITLE11=朋友
TTITLE12=八百里河套是我家
TTITLE13=我为鄂伦春敬上一杯酒
TTITLE14=啊，中华
TTITLE15=同歌未来
EXTD=
EXTT0=
EXTT1=
EXTT2=
EXTT3=
EXTT4=
EXTT5=
EXTT6=
EXTT7=
EXTT8=
EXTT9=
EXTT10=
EXTT11=
EXTT12=
EXTT13=
EXTT14=
EXTT15=
PLAYORDER=
